<?xml version="1.0" encoding="utf-8"?>
<!-- Generator: Adobe Illustrator 25.0.0, SVG Export Plug-In . SVG Version: 6.00 Build 0)  -->
<svg version="1.1" data-id="Layer_1" xmlns="http://www.w3.org/2000/svg" xmlns:xlink="http://www.w3.org/1999/xlink" x="0px" y="0px"
	 viewBox="0 0 1280 1280" style="enable-background:new 0 0 1280 1280;" xml:space="preserve">
<style type="text/css">
	.st0{fill:#CDD3D3;}
	.st1{fill:#A1BABA;}
	.st2{fill:#608182;}
	.st3{fill:#263433;}
	.st4{fill:#7EA1A1;}
</style>
<g>
	<polyline class="st0" points="659.94,777.32 663.98,780.92 669.77,784.93 676.31,789.18 685.14,793.16 695.13,797.42 
		706.73,801.43 715.91,805.74 723.88,810.75 730.7,816.18 735.93,821.29 740.65,827.77 743.61,834.39 745.1,838.32 746.71,843.64 
		747.7,847.8 748.69,851.98 750.34,858.91 752.09,866.24 753.65,872.81 746.97,871.26 739.67,869.38 732.77,867.6 728.61,866.53 
		724.47,865.46 719.18,863.75 715.28,862.19 708.72,859.11 702.33,854.27 697.31,848.95 692.01,842.03 687.15,833.97 683.01,824.71 
		679.21,813.04 675.14,802.96 671.33,794.06 667.2,787.44 663.3,781.58 659.77,777.47 	"/>
	<polyline class="st0" points="741.91,662.86 743.23,668.84 745.89,676.36 749.08,684.59 754.55,694.09 760.91,704.62 768.9,715.99 
		774.47,726.03 778.46,735.91 781.13,745.41 782.54,753.56 782.58,762.64 780.91,770.68 779.67,775.27 777.63,781.22 775.79,785.69 
		773.93,790.19 770.85,797.65 767.6,805.53 764.68,812.6 759.57,806.74 754.12,800.19 748.97,793.98 745.85,790.24 742.76,786.52 
		739.04,781.45 736.5,777.43 732.51,770.25 729.85,761.58 728.77,753.37 728.49,743.51 729.36,732.88 731.69,721.64 735.94,708.41 
		738.88,696.47 741.27,685.77 741.87,676.96 742.17,668.99 741.65,662.89 	"/>
	<polyline class="st0" points="883.05,625.44 880.74,631.72 878.75,640.22 876.83,649.68 876.26,661.66 875.9,675.1 876.55,690.29 
		875.76,702.82 873.6,714.28 870.45,724.6 866.94,732.94 861.62,741.32 855.34,747.74 851.49,751.24 846.09,755.51 841.76,758.54 
		837.39,761.59 830.16,766.64 822.51,771.98 815.65,776.77 814.4,768.36 813.25,759.11 812.17,750.35 811.51,745.06 810.86,739.82 
		810.43,732.95 810.45,727.75 811.02,718.78 813.69,709.22 817.54,701.03 823.1,691.78 830.17,682.52 838.95,673.54 850.67,663.86 
		860.43,654.6 868.94,646.16 874.69,638.4 879.67,631.24 882.79,625.31 	"/>
	<polyline class="st1" points="981.42,690.13 976.97,693.91 971.82,699.51 966.31,705.87 960.74,714.71 954.7,724.77 948.69,736.57 
		942.71,745.74 936.17,753.51 929.36,759.99 923.11,764.82 915.48,768.9 907.97,771.08 903.54,772.09 897.62,773.02 893.03,773.46 
		888.41,773.9 880.75,774.63 872.66,775.41 865.4,776.1 868.06,769.19 871.15,761.67 874.08,754.56 875.85,750.26 877.6,746 
		880.22,740.61 882.47,736.67 886.74,730.11 892.86,724 899.3,719.43 907.48,714.79 916.82,710.79 927.33,707.74 940.37,705.42 
		951.75,702.57 961.83,699.82 969.52,696.39 976.37,693.09 981.28,689.93 	"/>
	<polyline class="st1" points="1044.44,803.42 1038.35,803.49 1030.5,804.56 1021.85,805.99 1011.5,809.39 999.97,813.44 
		987.3,818.91 976.41,822.3 965.99,824.19 956.21,824.86 947.99,824.58 939.15,822.78 931.67,819.53 927.46,817.4 922.08,814.21 
		918.11,811.51 914.11,808.79 907.47,804.29 900.47,799.53 894.18,795.26 900.91,791.48 908.39,787.5 915.47,783.74 919.74,781.47 
		923.98,779.22 929.67,776.63 934.09,774.96 941.88,772.54 950.86,771.71 959.06,772.32 968.71,774.04 978.87,777.04 989.33,781.58 
		1001.34,788.39 1012.36,793.67 1022.28,798.16 1030.73,800.52 1038.42,802.43 1044.46,803.16 	"/>
	<polyline class="st1" points="1045.62,956.97 1039.84,952.82 1031.72,948.39 1022.59,943.74 1010.5,939.77 996.85,935.59 
		981.14,931.96 968.55,927.6 957.45,922.15 947.78,916.01 940.25,910.05 933.18,902.24 928.4,894 925.91,889.07 923.06,882.35 
		921.2,877.06 919.31,871.73 916.2,862.9 912.9,853.57 909.95,845.2 918.9,846.31 928.69,847.75 937.95,849.12 943.54,849.94 
		949.09,850.76 956.24,852.26 961.55,853.76 970.55,856.88 979.57,862.32 986.86,868.57 994.75,876.88 1002.22,886.73 
		1008.91,898.26 1015.49,912.98 1022.2,925.58 1028.42,936.67 1034.73,944.75 1040.64,951.87 1045.81,956.74 	"/>
	<polyline class="st1" points="955.8,1099.2 952.46,1091.71 946.96,1082.55 940.57,1072.6 930.85,1061.6 919.69,1049.49 
		906.16,1036.72 896.16,1025.04 888.27,1013.14 882.23,1001.39 878.2,991.07 875.71,979.17 875.75,968.18 876.14,961.82 
		877.23,953.46 878.45,947.11 879.68,940.7 881.72,930.09 883.88,918.88 885.81,908.82 894.09,915.14 902.99,922.28 911.42,929.04 
		916.51,933.12 921.56,937.17 927.8,942.83 932.22,947.42 939.37,955.77 945.18,966.44 948.8,976.92 951.81,989.79 953.51,1003.96 
		953.46,1019.33 951.43,1037.83 950.77,1054.29 950.5,1068.96 952.08,1080.68 953.81,1091.22 956.13,1099.09 	"/>
	<polyline class="st2" points="822.66,1220.03 822.41,1210.29 820.54,1197.73 818.06,1183.9 812.41,1167.4 805.67,1149.02 
		796.65,1128.83 790.99,1111.46 787.76,1094.81 786.48,1079.16 786.75,1065.99 789.44,1051.8 794.5,1039.75 797.83,1032.95 
		802.83,1024.27 807.06,1017.85 811.33,1011.38 818.41,1000.67 825.88,989.35 832.59,979.19 838.79,989.89 845.31,1001.79 
		851.48,1013.05 855.21,1019.84 858.9,1026.59 863.18,1035.64 865.94,1042.7 869.98,1055.12 871.5,1069.48 870.69,1082.63 
		868.13,1098.12 863.54,1114.45 856.48,1131.31 845.83,1150.68 837.61,1168.45 830.62,1184.43 827.01,1198.01 824.11,1210.37 
		823.07,1220.06 	"/>
	<polyline class="st2" points="629.81,1248.31 633.81,1237.84 637.31,1223.67 640.72,1207.87 641.93,1187.85 642.81,1165.35 
		642.04,1139.94 643.63,1118.98 647.47,1099.86 652.96,1082.66 659.02,1068.77 668.09,1054.86 678.73,1044.25 685.25,1038.47 
		694.36,1031.44 701.67,1026.47 709.05,1021.45 721.26,1013.15 734.16,1004.38 745.74,996.51 747.65,1010.61 749.38,1026.11 
		751.02,1040.79 752.01,1049.65 752.99,1058.44 753.57,1069.94 753.42,1078.64 752.28,1093.63 747.61,1109.57 741,1123.2 
		731.5,1138.55 719.48,1153.91 704.59,1168.74 684.79,1184.69 668.27,1199.99 653.85,1213.93 644.07,1226.79 635.58,1238.67 
		630.23,1248.52 	"/>
	<polyline class="st2" points="337.86,1050.81 352.36,1047.29 370.54,1040.43 390.43,1032.24 413.29,1018.44 438.61,1002.41 
		465.88,982.37 490.05,968.28 513.91,958.05 536.91,951.07 556.71,947.22 578.81,946.65 598.47,950.31 609.73,953.09 624.32,957.76 
		635.3,962.02 646.36,966.32 664.68,973.43 684.04,980.95 701.41,987.69 687.41,1000.44 671.72,1014.05 656.87,1026.92 
		647.91,1034.7 639.01,1042.41 626.85,1051.74 617.19,1058.15 599.91,1068.22 578.91,1075.14 558.98,1078.19 534.97,1079.38 
		509.06,1077.8 481.56,1072.69 449.12,1063.02 419.88,1056.48 393.7,1051.2 372.22,1050.19 352.79,1049.87 337.95,1051.44 	"/>
	<polyline class="st2" points="234.47,735.91 251.3,742.03 273.88,747.26 299,752.31 330.51,753.73 365.87,754.57 405.63,752.7 
		438.65,754.71 469.02,760.36 496.56,768.68 518.96,777.99 541.72,792.11 559.46,808.82 569.19,819.07 581.18,833.43 589.74,844.98 
		598.36,856.61 612.65,875.89 627.75,896.25 641.29,914.52 619.4,917.93 595.27,921.08 572.44,924.06 558.65,925.85 544.97,927.64 
		527.01,928.86 513.34,928.83 489.74,927.4 464.26,920.35 442.2,910.15 417.14,895.38 391.81,876.59 367,853.22 339.94,822.02 
		314.24,796.06 290.87,773.4 269.69,758.12 250.18,744.88 234.19,736.6 	"/>
	<polyline class="st3" points="347.82,323.75 360.02,342.62 378.87,365.13 400.5,389.43 431.73,415.31 467.4,443.62 509.87,472.81 
		542.16,500.39 568.69,529.37 590.07,558.65 605.33,584.87 616.94,615.89 621.22,645.46 622.67,662.7 622.99,685.57 622.15,703.11 
		621.3,720.8 619.89,750.09 618.4,781.04 617.06,808.81 591.68,794.98 564.23,779.17 538.25,764.21 522.56,755.17 507,746.21 
		487.5,733.37 473.46,722.72 450.37,702.99 430.05,676.52 415.89,649.73 402.45,616.3 392.1,578.86 386.11,537.51 384.35,487.03 
		379.6,442.55 374.51,403 365.48,372.1 356.48,344.43 346.95,324.17 	"/>
	<polyline class="st3" points="671.32,31.54 673.01,56.63 679.25,88.9 687.21,124.43 703.72,166.71 723.26,213.78 748.97,265.41 
		765.59,309.94 775.81,352.7 780.84,392.97 781.54,426.91 776.05,463.58 764.18,494.83 756.24,512.49 744.14,535.05 733.78,551.76 
		723.34,568.61 706.06,596.51 687.8,625.98 671.41,652.44 654.08,625.12 635.8,594.74 618.5,565.99 608.06,548.63 597.69,531.41 
		585.58,508.26 577.63,490.2 565.74,458.36 560.24,421.42 560.92,387.51 565.92,347.5 576.13,305.24 592.72,261.53 618.4,211.17 
		637.92,165.06 654.41,123.59 662.35,88.45 668.57,56.49 670.24,31.48 	"/>
	<polyline class="st2" points="671.59,189.98 672.86,208.69 677.5,232.77 683.44,259.27 695.76,290.82 710.34,325.94 729.52,364.45 
		741.92,397.67 749.55,429.57 753.29,459.61 753.82,484.93 749.72,512.29 740.87,535.6 734.94,548.78 725.91,565.61 718.19,578.07 
		710.4,590.64 697.51,611.46 683.88,633.45 671.66,653.18 658.73,632.81 645.1,610.14 632.19,588.69 624.4,575.74 616.67,562.89 
		607.63,545.62 601.7,532.15 592.83,508.4 588.72,480.84 589.23,455.54 592.96,425.69 600.58,394.17 612.95,361.55 632.12,323.98 
		646.68,289.59 658.98,258.65 664.9,232.44 669.54,208.59 670.79,189.94 	"/>
	<polyline class="st2" points="417.1,447.24 426.22,461.35 440.32,478.18 456.48,496.35 479.83,515.69 506.5,536.86 538.25,558.68 
		562.39,579.3 582.22,600.96 598.21,622.85 609.62,642.45 618.3,665.65 621.5,687.75 622.58,700.64 622.82,717.74 622.19,730.86 
		621.55,744.08 620.5,765.98 619.39,789.12 618.39,809.88 599.42,799.54 578.89,787.72 559.47,776.53 547.74,769.78 536.11,763.08 
		521.53,753.48 511.03,745.51 493.77,730.77 478.58,710.98 467.99,690.95 457.94,665.95 450.21,637.96 445.73,607.05 444.41,569.31 
		440.86,536.05 437.06,506.49 430.31,483.39 423.58,462.71 416.45,447.56 	"/>
	<polyline class="st1" points="365.85,794.4 377.29,798.56 392.64,802.12 409.71,805.55 431.13,806.52 455.16,807.09 482.19,805.82 
		504.63,807.18 525.27,811.02 544,816.68 559.22,823.01 574.69,832.6 586.75,843.97 593.36,850.93 601.51,860.69 607.33,868.54 
		613.19,876.45 622.9,889.55 633.16,903.39 642.37,915.81 627.49,918.12 611.09,920.26 595.57,922.29 586.2,923.51 576.9,924.73 
		564.69,925.55 555.4,925.54 539.36,924.57 522.04,919.77 507.05,912.84 490.01,902.8 472.79,890.03 455.93,874.14 437.54,852.93 
		420.07,835.29 404.19,819.89 389.78,809.5 376.53,800.5 365.65,794.87 	"/>
	<polyline class="st1" points="446.5,1032.04 456.68,1029.57 469.45,1024.75 483.42,1018.99 499.48,1009.3 517.27,998.04 
		536.43,983.96 553.41,974.06 570.18,966.88 586.33,961.97 600.24,959.27 615.77,958.87 629.58,961.44 637.49,963.39 647.74,966.67 
		655.45,969.67 663.22,972.68 676.1,977.68 689.7,982.96 701.9,987.7 692.06,996.65 681.04,1006.21 670.61,1015.26 664.31,1020.72 
		658.06,1026.14 649.52,1032.69 642.73,1037.2 630.59,1044.27 615.84,1049.14 601.84,1051.28 584.97,1052.11 566.77,1051 
		547.44,1047.41 524.66,1040.62 504.11,1036.02 485.72,1032.31 470.63,1031.61 456.98,1031.38 446.56,1032.48 	"/>
	<polyline class="st1" points="667.58,1166.73 670.29,1159.65 672.66,1150.07 674.96,1139.39 675.78,1125.85 676.37,1110.64 
		675.85,1093.46 676.93,1079.29 679.53,1066.37 683.24,1054.73 687.33,1045.35 693.46,1035.94 700.66,1028.77 705.07,1024.86 
		711.23,1020.11 716.17,1016.74 721.16,1013.36 729.41,1007.74 738.14,1001.81 745.96,996.49 747.26,1006.02 748.43,1016.51 
		749.53,1026.43 750.2,1032.42 750.86,1038.36 751.26,1046.13 751.15,1052.02 750.39,1062.15 747.23,1072.93 742.76,1082.14 
		736.34,1092.53 728.21,1102.91 718.15,1112.94 704.75,1123.72 693.59,1134.06 683.84,1143.48 677.22,1152.18 671.49,1160.21 
		667.87,1166.87 	"/>
	<polyline class="st1" points="825.5,1152.14 825.32,1145.15 823.98,1136.13 822.2,1126.2 818.14,1114.34 813.3,1101.15 
		806.82,1086.65 802.76,1074.17 800.44,1062.21 799.52,1050.98 799.72,1041.52 801.65,1031.33 805.28,1022.67 807.67,1017.79 
		811.26,1011.56 814.3,1006.95 817.37,1002.3 822.45,994.61 827.82,986.48 832.63,979.18 837.09,986.87 841.77,995.41 846.2,1003.5 
		848.88,1008.38 851.53,1013.22 854.6,1019.73 856.58,1024.79 859.48,1033.71 860.57,1044.03 860,1053.47 858.16,1064.6 
		854.86,1076.32 849.79,1088.43 842.14,1102.34 836.23,1115.1 831.22,1126.58 828.62,1136.33 826.55,1145.21 825.8,1152.16 	"/>
	<polyline class="st4" points="671.62,349.94 672.45,362.19 675.49,377.95 679.38,395.3 687.44,415.96 696.98,438.95 709.54,464.16 
		717.66,485.91 722.65,506.79 725.11,526.46 725.45,543.04 722.77,560.94 716.97,576.21 713.09,584.83 707.18,595.85 702.12,604.01 
		697.03,612.24 688.58,625.87 679.66,640.26 671.66,653.18 663.2,639.84 654.27,625 645.82,610.96 640.72,602.48 635.66,594.07 
		629.74,582.76 625.86,573.95 620.05,558.4 617.37,540.36 617.7,523.79 620.14,504.25 625.13,483.61 633.23,462.26 645.77,437.67 
		655.31,415.15 663.36,394.89 667.24,377.73 670.27,362.12 671.09,349.91 	"/>
	<polyline class="st1" points="493.56,584.99 499.21,593.74 507.96,604.17 517.98,615.44 532.46,627.44 549,640.56 568.69,654.1 
		583.66,666.89 595.96,680.32 605.87,693.9 612.95,706.05 618.33,720.44 620.32,734.14 620.99,742.14 621.14,752.74 620.75,760.87 
		620.35,769.07 619.7,782.65 619.01,797 618.39,809.88 606.62,803.47 593.9,796.14 581.85,789.2 574.58,785.01 567.36,780.85 
		558.32,774.9 551.81,769.96 541.1,760.82 531.69,748.54 525.12,736.12 518.89,720.62 514.09,703.27 511.31,684.1 510.5,660.69 
		508.3,640.07 505.94,621.73 501.75,607.41 497.58,594.58 493.16,585.19 	"/>
</g>
</svg>
